<svg xmlns="http://www.w3.org/2000/svg"
 xmlns:xlink="http://www.w3.org/1999/xlink"
 width="31px" height="31px"  viewBox="0 0 31 31">
<path fill-rule="evenodd"  fill="#0b80e0"
 d="M5.678009,9.414307 C6.0303345,9.414307 6.3160706,9.128662 6.3160706,8.776123 C6.3160706,8.776123 6.3160706,4.947998 6.3160706,4.947998 C6.3160706,4.595215 6.0303345,4.3100586 5.678009,4.3100586 C5.3256836,4.3100586 5.040039,4.595215 5.040039,4.947998 C5.040039,4.947998 5.040039,8.776123 5.040039,8.776123 C5.040039,9.128662 5.3256836,9.414307 5.678009,9.414307 ZM26.094788,21.536621 C26.094788,21.536621 24.786682,21.536621 24.786682,21.536621 C24.801514,21.32544 24.818756,21.114258 24.818756,20.898682 C24.818756,20.898682 24.818756,16.432373 24.818756,16.432373 C24.818756,16.432373 26.094788,16.432373 26.094788,16.432373 C27.50415,16.432373 28.646912,17.575195 28.646912,18.98462 C28.646912,20.393799 27.50415,21.536621 26.094788,21.536621 ZM23.542725,20.898682 C23.542725,22.294922 23.162933,23.59961 22.509918,24.726562 C22.509918,24.726562 4.158722,24.726562 4.158722,24.726562 C3.5056458,23.59961 3.1259155,22.294922 3.1259155,20.898682 C3.1259155,20.898682 3.1259155,13.242432 3.1259155,13.242432 C3.1259155,13.242432 23.542725,13.242432 23.542725,13.242432 C23.542725,13.242432 23.542725,20.898682 23.542725,20.898682 ZM15.886353,28.554932 C15.886353,28.554932 10.782196,28.554932 10.782196,28.554932 C8.517639,28.554932 6.4889526,27.56543 5.086975,26.00293 C5.086975,26.00293 21.581573,26.00293 21.581573,26.00293 C20.179962,27.56543 18.15094,28.554932 15.886353,28.554932 ZM26.094788,15.156494 C26.094788,15.156494 24.818756,15.156494 24.818756,15.156494 C24.818756,15.156494 24.818756,13.242432 24.818756,13.242432 C24.818756,12.537598 24.247406,11.966553 23.542725,11.966553 C23.542725,11.966553 3.1259155,11.966553 3.1259155,11.966553 C2.4212646,11.966553 1.849884,12.537598 1.849884,13.242432 C1.849884,13.242432 1.849884,20.898682 1.849884,20.898682 C1.849884,24.153564 3.5969543,26.99414 6.1989136,28.554932 C6.1989136,28.554932 2.487854,28.554932 2.487854,28.554932 C2.1355286,28.554932 1.849884,28.840332 1.849884,29.192871 C1.849884,29.54541 2.1355286,29.83081 2.487854,29.83081 C2.487854,29.83081 10.782196,29.83081 10.782196,29.83081 C10.782196,29.83081 15.886353,29.83081 15.886353,29.83081 C15.886353,29.83081 24.180695,29.83081 24.180695,29.83081 C24.53305,29.83081 24.818756,29.54541 24.818756,29.192871 C24.818756,28.840332 24.53305,28.554932 24.180695,28.554932 C24.180695,28.554932 20.4747,28.554932 20.4747,28.554932 C22.547333,27.308594 24.075745,25.249023 24.608063,22.812744 C24.608063,22.812744 26.094788,22.812744 26.094788,22.812744 C28.208923,22.812744 29.922974,21.099365 29.922974,18.98462 C29.922974,16.870361 28.208923,15.156494 26.094788,15.156494 ZM9.506134,10.690186 C9.85849,10.690186 10.144196,10.405029 10.144196,10.052246 C10.144196,10.052246 10.144196,3.671875 10.144196,3.671875 C10.144196,3.31958 9.85849,3.0339355 9.506134,3.0339355 C9.153809,3.0339355 8.8680725,3.31958 8.8680725,3.671875 C8.8680725,3.671875 8.8680725,10.052246 8.8680725,10.052246 C8.8680725,10.405029 9.153809,10.690186 9.506134,10.690186 ZM20.990631,10.690186 C21.342896,10.690186 21.628601,10.405029 21.628601,10.052246 C21.628601,10.052246 21.628601,3.671875 21.628601,3.671875 C21.628601,3.31958 21.342896,3.0339355 20.990631,3.0339355 C20.638214,3.0339355 20.35257,3.31958 20.35257,3.671875 C20.35257,3.671875 20.35257,10.052246 20.35257,10.052246 C20.35257,10.405029 20.638214,10.690186 20.990631,10.690186 ZM13.33429,9.414307 C13.686615,9.414307 13.972351,9.128662 13.972351,8.776123 C13.972351,8.776123 13.972351,2.395752 13.972351,2.395752 C13.972351,2.043457 13.686615,1.7580566 13.33429,1.7580566 C12.981934,1.7580566 12.696289,2.043457 12.696289,2.395752 C12.696289,2.395752 12.696289,8.776123 12.696289,8.776123 C12.696289,9.128662 12.981934,9.414307 13.33429,9.414307 ZM17.162415,9.414307 C17.51474,9.414307 17.800476,9.128662 17.800476,8.776123 C17.800476,8.776123 17.800476,4.947998 17.800476,4.947998 C17.800476,4.595215 17.51474,4.3100586 17.162415,4.3100586 C16.81009,4.3100586 16.524445,4.595215 16.524445,4.947998 C16.524445,4.947998 16.524445,8.776123 16.524445,8.776123 C16.524445,9.128662 16.81009,9.414307 17.162415,9.414307 Z"/>
</svg>