<svg xmlns="http://www.w3.org/2000/svg"
 xmlns:xlink="http://www.w3.org/1999/xlink"
 width="31px" height="31px"  viewBox="0 0 31 31">
<path fill-rule="evenodd"  fill="#0b80e0"
 d="M11.420227,14.518311 C11.420227,14.518311 8.868134,14.518311 8.868134,14.518311 C8.868134,14.518311 8.868134,17.070312 8.868134,17.070312 C8.868134,17.070312 11.420227,17.070312 11.420227,17.070312 C11.420227,17.070312 11.420227,14.518311 11.420227,14.518311 ZM11.420227,18.98462 C11.420227,18.98462 8.868134,18.98462 8.868134,18.98462 C8.868134,18.98462 8.868134,21.536621 8.868134,21.536621 C8.868134,21.536621 11.420227,21.536621 11.420227,21.536621 C11.420227,21.536621 11.420227,18.98462 11.420227,18.98462 ZM15.248352,23.450684 C15.248352,23.450684 12.696259,23.450684 12.696259,23.450684 C12.696259,23.450684 12.696259,26.00293 12.696259,26.00293 C12.696259,26.00293 15.248352,26.00293 15.248352,26.00293 C15.248352,26.00293 15.248352,23.450684 15.248352,23.450684 ZM7.592087,23.450684 C7.592087,23.450684 5.0399933,23.450684 5.0399933,23.450684 C5.0399933,23.450684 5.0399933,26.00293 5.0399933,26.00293 C5.0399933,26.00293 7.592087,26.00293 7.592087,26.00293 C7.592087,26.00293 7.592087,23.450684 7.592087,23.450684 ZM28.646866,10.690186 C28.646866,10.690186 3.1259766,10.690186 3.1259766,10.690186 C3.1259766,10.690186 3.1259766,6.862793 3.1259766,6.862793 C3.1259766,6.1574707 3.6972656,5.5861816 4.402008,5.5861816 C4.402008,5.5861816 6.9540253,5.5861816 6.9540253,5.5861816 C6.9540253,5.5861816 6.9540253,7.500244 6.9540253,7.500244 C6.9540253,7.852783 7.2394104,8.137939 7.592087,8.137939 C7.944763,8.137939 8.230148,7.852783 8.230148,7.500244 C8.230148,7.500244 8.230148,5.5861816 8.230148,5.5861816 C8.230148,5.5861816 23.542694,5.5861816 23.542694,5.5861816 C23.542694,5.5861816 23.542694,7.500244 23.542694,7.500244 C23.542694,7.852783 23.82808,8.137939 24.180664,8.137939 C24.53334,8.137939 24.818726,7.852783 24.818726,7.500244 C24.818726,7.500244 24.818726,5.5861816 24.818726,5.5861816 C24.818726,5.5861816 27.37082,5.5861816 27.37082,5.5861816 C28.0755,5.5861816 28.646866,6.1574707 28.646866,6.862793 C28.646866,6.862793 28.646866,10.690186 28.646866,10.690186 ZM28.646866,27.278809 C28.646866,27.983643 28.0755,28.554932 27.37082,28.554932 C27.37082,28.554932 4.402008,28.554932 4.402008,28.554932 C3.6972656,28.554932 3.1259766,27.983643 3.1259766,27.278809 C3.1259766,27.278809 3.1259766,11.966064 3.1259766,11.966064 C3.1259766,11.966064 28.646866,11.966064 28.646866,11.966064 C28.646866,11.966064 28.646866,27.278809 28.646866,27.278809 ZM27.37082,4.3100586 C27.37082,4.3100586 24.818726,4.3100586 24.818726,4.3100586 C24.818726,4.3100586 24.818726,2.395996 24.818726,2.395996 C24.818726,2.0437012 24.53334,1.7580566 24.180664,1.7580566 C23.82808,1.7580566 23.542694,2.0437012 23.542694,2.395996 C23.542694,2.395996 23.542694,4.3100586 23.542694,4.3100586 C23.542694,4.3100586 8.230148,4.3100586 8.230148,4.3100586 C8.230148,4.3100586 8.230148,2.395996 8.230148,2.395996 C8.230148,2.0437012 7.944763,1.7580566 7.592087,1.7580566 C7.2394104,1.7580566 6.9540253,2.0437012 6.9540253,2.395996 C6.9540253,2.395996 6.9540253,4.3100586 6.9540253,4.3100586 C6.9540253,4.3100586 4.402008,4.3100586 4.402008,4.3100586 C2.9925842,4.3100586 1.8498383,5.4526367 1.8498383,6.862793 C1.8498383,6.862793 1.8498383,10.690186 1.8498383,10.690186 C1.8498383,10.690186 1.8498383,11.966064 1.8498383,11.966064 C1.8498383,11.966064 1.8498383,27.278809 1.8498383,27.278809 C1.8498383,28.688232 2.9925842,29.831055 4.402008,29.831055 C4.402008,29.831055 27.37082,29.831055 27.37082,29.831055 C28.780167,29.831055 29.922913,28.688232 29.922913,27.278809 C29.922913,27.278809 29.922913,11.966064 29.922913,11.966064 C29.922913,11.966064 29.922913,10.690186 29.922913,10.690186 C29.922913,10.690186 29.922913,6.862793 29.922913,6.862793 C29.922913,5.4526367 28.780167,4.3100586 27.37082,4.3100586 ZM15.248352,18.98462 C15.248352,18.98462 12.696259,18.98462 12.696259,18.98462 C12.696259,18.98462 12.696259,21.536621 12.696259,21.536621 C12.696259,21.536621 15.248352,21.536621 15.248352,21.536621 C15.248352,21.536621 15.248352,18.98462 15.248352,18.98462 ZM7.592087,14.518311 C7.592087,14.518311 5.0399933,14.518311 5.0399933,14.518311 C5.0399933,14.518311 5.0399933,17.070312 5.0399933,17.070312 C5.0399933,17.070312 7.592087,17.070312 7.592087,17.070312 C7.592087,17.070312 7.592087,14.518311 7.592087,14.518311 ZM11.420227,23.450684 C11.420227,23.450684 8.868134,23.450684 8.868134,23.450684 C8.868134,23.450684 8.868134,26.00293 8.868134,26.00293 C8.868134,26.00293 11.420227,26.00293 11.420227,26.00293 C11.420227,26.00293 11.420227,23.450684 11.420227,23.450684 ZM7.592087,18.98462 C7.592087,18.98462 5.0399933,18.98462 5.0399933,18.98462 C5.0399933,18.98462 5.0399933,21.536621 5.0399933,21.536621 C5.0399933,21.536621 7.592087,21.536621 7.592087,21.536621 C7.592087,21.536621 7.592087,18.98462 7.592087,18.98462 ZM26.73285,18.98462 C26.73285,18.98462 24.180664,18.98462 24.180664,18.98462 C24.180664,18.98462 24.180664,21.536621 24.180664,21.536621 C24.180664,21.536621 26.73285,21.536621 26.73285,21.536621 C26.73285,21.536621 26.73285,18.98462 26.73285,18.98462 ZM22.904709,14.518311 C22.904709,14.518311 20.35254,14.518311 20.35254,14.518311 C20.35254,14.518311 20.35254,17.070312 20.35254,17.070312 C20.35254,17.070312 22.904709,17.070312 22.904709,17.070312 C22.904709,17.070312 22.904709,14.518311 22.904709,14.518311 ZM26.73285,14.518311 C26.73285,14.518311 24.180664,14.518311 24.180664,14.518311 C24.180664,14.518311 24.180664,17.070312 24.180664,17.070312 C24.180664,17.070312 26.73285,17.070312 26.73285,17.070312 C26.73285,17.070312 26.73285,14.518311 26.73285,14.518311 ZM19.076492,18.98462 C19.076492,18.98462 16.524399,18.98462 16.524399,18.98462 C16.524399,18.98462 16.524399,21.536621 16.524399,21.536621 C16.524399,21.536621 19.076492,21.536621 19.076492,21.536621 C19.076492,21.536621 19.076492,18.98462 19.076492,18.98462 ZM22.904709,18.98462 C22.904709,18.98462 20.35254,18.98462 20.35254,18.98462 C20.35254,18.98462 20.35254,21.536621 20.35254,21.536621 C20.35254,21.536621 22.904709,21.536621 22.904709,21.536621 C22.904709,21.536621 22.904709,18.98462 22.904709,18.98462 ZM15.248352,14.518311 C15.248352,14.518311 12.696259,14.518311 12.696259,14.518311 C12.696259,14.518311 12.696259,17.070312 12.696259,17.070312 C12.696259,17.070312 15.248352,17.070312 15.248352,17.070312 C15.248352,17.070312 15.248352,14.518311 15.248352,14.518311 ZM19.076492,23.450684 C19.076492,23.450684 16.524399,23.450684 16.524399,23.450684 C16.524399,23.450684 16.524399,26.00293 16.524399,26.00293 C16.524399,26.00293 19.076492,26.00293 19.076492,26.00293 C19.076492,26.00293 19.076492,23.450684 19.076492,23.450684 ZM19.076492,14.518311 C19.076492,14.518311 16.524399,14.518311 16.524399,14.518311 C16.524399,14.518311 16.524399,17.070312 16.524399,17.070312 C16.524399,17.070312 19.076492,17.070312 19.076492,17.070312 C19.076492,17.070312 19.076492,14.518311 19.076492,14.518311 Z"/>
</svg>