<svg xmlns="http://www.w3.org/2000/svg"
 xmlns:xlink="http://www.w3.org/1999/xlink"
 width="62px" height="63px"  viewBox="0 0 62 63">
<path fill-rule="evenodd"  fill="#0b80e0"
 d="M47.342087,44.961792 C46.96805,44.961792 46.62979,45.11377 46.38542,45.358032 C46.38542,45.358032 38.268066,53.47522 38.268066,53.47522 C38.02234,53.72107 37.870422,54.05896 37.870422,54.43347 C37.870422,55.18103 38.475616,55.78662 39.22354,55.78662 C39.597412,55.78662 39.934387,55.635742 40.180115,55.389893 C40.180115,55.389893 48.298676,47.271362 48.298676,47.271362 C48.543213,47.0271 48.69513,46.6886 48.69513,46.314697 C48.69513,45.56787 48.089844,44.961792 47.342087,44.961792 ZM50.04825,34.137085 C50.04825,34.137085 12.161636,34.137085 12.161636,34.137085 C7.684799,34.137085 4.043091,30.49524 4.043091,26.01831 C4.043091,22.24707 6.606415,19.004395 10.278687,18.131104 C11.354233,17.875732 12.16687,16.98938 12.329437,15.895142 C13.306015,9.323975 19.051361,4.3690186 25.692596,4.3690186 C30.28032,4.3690186 33.163727,5.329468 35.672974,9.203613 C36.099823,9.863281 38.145157,11.657593 38.92218,11.765869 C39.04767,11.784424 39.29744,11.792358 39.29744,11.792358 C39.9489,11.792358 40.581894,11.557007 41.078766,11.123535 C42.068314,10.258423 43.33165,9.78125 44.63585,9.78125 C47.620865,9.78125 50.04825,12.208374 50.04431,15.222656 C50.04431,15.222656 50.03238,15.420654 50.03238,15.420654 C49.974182,16.702515 50.8226,17.848145 52.064575,18.165527 C55.65747,19.086792 58.16681,22.314575 58.16681,26.01831 C58.16681,30.49524 54.525085,34.137085 50.04825,34.137085 ZM52.73587,15.545044 C52.74118,15.427734 52.754486,15.312378 52.754486,15.193237 C52.754486,10.709961 49.119293,7.0750732 44.63585,7.0750732 C42.590424,7.0750732 40.72592,7.8375244 39.29744,9.085815 C36.40889,4.625244 31.40625,1.6624756 25.692596,1.6624756 C17.543488,1.6624756 10.816498,7.672119 9.652298,15.497681 C4.886032,16.631104 1.3369293,20.904541 1.3369293,26.01831 C1.3369293,31.996338 6.1837006,36.843018 12.161636,36.843018 C12.161636,36.843018 50.04825,36.843018 50.04825,36.843018 C56.026276,36.843018 60.872955,31.996338 60.872955,26.01831 C60.872955,20.96936 57.41098,16.742188 52.73587,15.545044 ZM33.811142,43.608765 C33.811142,42.86084 33.20587,42.25537 32.458023,42.25537 C32.08406,42.25537 31.744507,42.40747 31.501434,42.65332 C31.501434,42.65332 23.384003,50.769165 23.384003,50.769165 C23.138351,51.01477 22.986435,51.353027 22.986435,51.727173 C22.986435,52.475098 23.591537,53.08008 24.339462,53.08008 C24.339462,53.08008 29.191559,53.08008 29.191559,53.08008 C29.191559,53.08008 23.382889,58.888794 23.382889,58.888794 C23.138351,59.134644 22.986435,59.471558 22.986435,59.84546 C22.986435,60.593628 23.591537,61.198853 24.339462,61.198853 C24.71344,61.198853 25.051697,61.047974 25.296143,60.802124 C25.296143,60.802124 33.41461,52.683838 33.41461,52.683838 C33.659225,52.439087 33.811142,52.101196 33.811142,51.727173 C33.811142,50.979004 33.20587,50.374023 32.458023,50.374023 C32.458023,50.374023 32.456726,50.374023 32.455353,50.374023 C32.455353,50.374023 27.605927,50.374023 27.605927,50.374023 C27.605927,50.374023 33.41461,44.565186 33.41461,44.565186 C33.660507,44.320923 33.811142,43.98242 33.811142,43.608765 ZM18.927063,44.961792 C18.5531,44.961792 18.214844,45.11377 17.97049,45.358032 C17.97049,45.358032 9.853058,53.47522 9.853058,53.47522 C9.607407,53.72107 9.455475,54.05896 9.455475,54.43347 C9.455475,55.18103 10.060669,55.78662 10.808609,55.78662 C11.18248,55.78662 11.520737,55.635742 11.7651825,55.389893 C11.7651825,55.389893 19.883652,47.271362 19.883652,47.271362 C20.129562,47.0271 20.280197,46.6886 20.280197,46.314697 C20.280197,45.56787 19.674911,44.961792 18.927063,44.961792 Z"/>
</svg>