<svg xmlns="http://www.w3.org/2000/svg"
 xmlns:xlink="http://www.w3.org/1999/xlink"
 width="62px" height="63px"  viewBox="0 0 62 63">
<path fill-rule="evenodd"  fill="#0b80e0"
 d="M31.104858,47.667847 C22.137573,47.667847 14.867859,40.39746 14.867859,31.430786 C14.867859,22.463867 22.137573,15.1936035 31.104858,15.1936035 C40.072388,15.1936035 47.342102,22.463867 47.342102,31.430786 C47.342102,40.39746 40.072388,47.667847 31.104858,47.667847 ZM31.104858,12.487549 C20.642883,12.487549 12.161682,20.967773 12.161682,31.430786 C12.161682,41.893555 20.642883,50.37378 31.104858,50.37378 C41.566895,50.37378 50.048218,41.893555 50.048218,31.430786 C50.048218,20.967773 41.566895,12.487549 31.104858,12.487549 ZM31.104858,58.492554 C16.158752,58.492554 4.043091,46.37683 4.043091,31.430786 C4.043091,16.484497 16.158752,4.3687744 31.104858,4.3687744 C46.051025,4.3687744 58.16681,16.484497 58.16681,31.430786 C58.16681,46.37683 46.051025,58.492554 31.104858,58.492554 ZM51.721863,52.872803 C57.353394,47.45642 60.873047,39.861084 60.873047,31.430786 C60.873047,14.990356 47.545593,1.6628418 31.104858,1.6628418 C14.664368,1.6628418 1.3369141,14.990356 1.3369141,31.430786 C1.3369141,39.861084 4.8563843,47.45642 10.488098,52.872803 C10.488098,52.872803 7.145752,58.889038 7.145752,58.889038 C6.9005127,59.134888 6.7492065,59.47278 6.7492065,59.845703 C6.7492065,60.593628 7.3551636,61.19861 8.102356,61.19861 C8.476379,61.19861 8.814575,61.048218 9.058899,60.80237 C9.214966,60.646484 9.313416,60.44568 9.378113,60.228638 C9.378113,60.228638 12.48468,54.636963 12.48468,54.636963 C17.584595,58.734497 24.053345,61.19861 31.104858,61.19861 C38.156494,61.19861 44.625244,58.734497 49.725098,54.636963 C49.725098,54.636963 52.831604,60.228638 52.831604,60.228638 C52.99884,60.785522 53.49585,61.19861 54.107605,61.19861 C54.854675,61.19861 55.460632,60.593628 55.460632,59.845703 C55.460632,59.47278 55.309326,59.134888 55.064148,58.889038 C55.064148,58.889038 51.721863,52.872803 51.721863,52.872803 ZM31.104858,36.843018 C28.116028,36.843018 25.692566,34.419678 25.692566,31.430786 C25.692566,28.44165 28.116028,26.01831 31.104858,26.01831 C34.093933,26.01831 36.517334,28.44165 36.517334,31.430786 C36.517334,34.419678 34.093933,36.843018 31.104858,36.843018 ZM31.104858,23.312256 C26.620728,23.312256 22.98639,26.946167 22.98639,31.430786 C22.98639,35.914185 26.620728,39.549072 31.104858,39.549072 C35.58911,39.549072 39.22351,35.914185 39.22351,31.430786 C39.22351,26.946167 35.58911,23.312256 31.104858,23.312256 Z"/>
</svg>