<svg xmlns="http://www.w3.org/2000/svg"
 xmlns:xlink="http://www.w3.org/1999/xlink"
 width="28px" height="38px"  viewBox="0 0 28 38">
<path fill-rule="evenodd"  fill="#0b80e0"
 d="M13.885376,18.793945 C11.242737,18.793945 9.100128,16.651123 9.100128,14.008545 C9.100128,11.365967 11.242737,9.223633 13.885376,9.223633 C16.52835,9.223633 18.670532,11.365967 18.670532,14.008545 C18.670532,16.651123 16.52835,18.793945 13.885376,18.793945 ZM13.885376,7.628418 C10.36142,7.628418 7.5051575,10.485107 7.5051575,14.008545 C7.5051575,17.532227 10.36142,20.388916 13.885376,20.388916 C17.40924,20.388916 20.265594,17.532227 20.265594,14.008545 C20.265594,10.485107 17.40924,7.628418 13.885376,7.628418 ZM13.885376,33.946777 C13.885376,33.946777 2.7199097,23.579102 2.7199097,14.008545 C2.7199097,7.841797 7.718872,2.8432617 13.885376,2.8432617 C20.051697,2.8432617 25.05075,7.841797 25.05075,14.008545 C25.05075,23.579102 13.885376,33.946777 13.885376,33.946777 ZM13.885376,1.2480469 C6.8380737,1.2480469 1.1248474,6.961914 1.1248474,14.008545 C1.1248474,24.376465 13.885376,36.339355 13.885376,36.339355 C13.885376,36.339355 26.645813,24.376465 26.645813,14.008545 C26.645813,6.961914 20.932678,1.2480469 13.885376,1.2480469 Z"/>
</svg>