<svg xmlns="http://www.w3.org/2000/svg"
 xmlns:xlink="http://www.w3.org/1999/xlink"
 width="62px" height="51px"  viewBox="0 0 62 51">
<path fill-rule="evenodd"  fill="#0b80e0"
 d="M25.692566,47.080444 C25.692566,47.080444 20.280212,47.080444 20.280212,47.080444 C20.280212,47.080444 20.280212,9.1936035 20.280212,9.1936035 C20.280212,9.1936035 25.692566,9.1936035 25.692566,9.1936035 C25.692566,9.1936035 25.692566,47.080444 25.692566,47.080444 ZM27.045654,6.4874268 C27.045654,6.4874268 18.927124,6.4874268 18.927124,6.4874268 C18.179932,6.4874268 17.573975,7.093994 17.573975,7.8408203 C17.573975,7.8408203 17.573975,48.43335 17.573975,48.43335 C17.573975,49.181396 18.179932,49.786377 18.927124,49.786377 C18.927124,49.786377 27.045654,49.786377 27.045654,49.786377 C27.792847,49.786377 28.398682,49.181396 28.398682,48.43335 C28.398682,48.43335 28.398682,7.8408203 28.398682,7.8408203 C28.398682,7.093994 27.792847,6.4874268 27.045654,6.4874268 ZM41.929688,47.080444 C41.929688,47.080444 36.517334,47.080444 36.517334,47.080444 C36.517334,47.080444 36.517334,25.430908 36.517334,25.430908 C36.517334,25.430908 41.929688,25.430908 41.929688,25.430908 C41.929688,25.430908 41.929688,47.080444 41.929688,47.080444 ZM43.282776,22.724365 C43.282776,22.724365 35.164246,22.724365 35.164246,22.724365 C34.417053,22.724365 33.81122,23.331177 33.81122,24.077515 C33.81122,24.077515 33.81122,48.43335 33.81122,48.43335 C33.81122,49.181396 34.417053,49.786377 35.164246,49.786377 C35.164246,49.786377 43.282776,49.786377 43.282776,49.786377 C44.029907,49.786377 44.635925,49.181396 44.635925,48.43335 C44.635925,48.43335 44.635925,24.077515 44.635925,24.077515 C44.635925,23.331177 44.029907,22.724365 43.282776,22.724365 ZM58.16687,47.080444 C58.16687,47.080444 52.754395,47.080444 52.754395,47.080444 C52.754395,47.080444 52.754395,3.781372 52.754395,3.781372 C52.754395,3.781372 58.16687,3.781372 58.16687,3.781372 C58.16687,3.781372 58.16687,47.080444 58.16687,47.080444 ZM59.519897,1.0748291 C59.519897,1.0748291 51.40143,1.0748291 51.40143,1.0748291 C50.654175,1.0748291 50.04828,1.6816406 50.04828,2.4282227 C50.04828,2.4282227 50.04828,48.43335 50.04828,48.43335 C50.04828,49.181396 50.654175,49.786377 51.40143,49.786377 C51.40143,49.786377 59.519897,49.786377 59.519897,49.786377 C60.26715,49.786377 60.872986,49.181396 60.872986,48.43335 C60.872986,48.43335 60.872986,2.4282227 60.872986,2.4282227 C60.872986,1.6816406 60.26715,1.0748291 59.519897,1.0748291 ZM9.455505,47.080444 C9.455505,47.080444 4.04303,47.080444 4.04303,47.080444 C4.04303,47.080444 4.04303,33.549194 4.04303,33.549194 C4.04303,33.549194 9.455505,33.549194 9.455505,33.549194 C9.455505,33.549194 9.455505,47.080444 9.455505,47.080444 ZM10.808594,30.84314 C10.808594,30.84314 2.6900024,30.84314 2.6900024,30.84314 C1.9428711,30.84314 1.3369141,31.449463 1.3369141,32.19629 C1.3369141,32.19629 1.3369141,48.43335 1.3369141,48.43335 C1.3369141,49.181396 1.9428711,49.786377 2.6900024,49.786377 C2.6900024,49.786377 10.808594,49.786377 10.808594,49.786377 C11.555725,49.786377 12.161621,49.181396 12.161621,48.43335 C12.161621,48.43335 12.161621,32.19629 12.161621,32.19629 C12.161621,31.449463 11.555725,30.84314 10.808594,30.84314 Z"/>
</svg>