<svg xmlns="http://www.w3.org/2000/svg"
 xmlns:xlink="http://www.w3.org/1999/xlink"
 width="38px" height="38px"  viewBox="0 0 38 38">
<path fill-rule="evenodd"  fill="#0b80e0"
 d="M18.88533,20.388672 C18.004456,20.388672 17.290344,19.67456 17.290344,18.793701 C17.290344,17.913086 18.004456,17.198975 18.88533,17.198975 C19.766205,17.198975 20.480408,17.913086 20.480408,18.793701 C20.480408,19.67456 19.766205,20.388672 18.88533,20.388672 ZM24.46811,17.996338 C24.46811,17.996338 21.962524,17.996338 21.962524,17.996338 C21.673203,16.879639 20.800125,16.005615 19.682861,15.716797 C19.682861,15.716797 19.682861,10.020996 19.682861,10.020996 C19.682861,9.581055 19.32573,9.223389 18.88533,9.223389 C18.444931,9.223389 18.0878,9.581055 18.0878,10.020996 C18.0878,10.020996 18.0878,15.716797 18.0878,15.716797 C16.714325,16.072754 15.695267,17.309326 15.695267,18.793701 C15.695267,20.556396 17.123657,21.98413 18.88533,21.98413 C20.370209,21.98413 21.607025,20.965332 21.962524,19.591309 C21.962524,19.591309 24.46811,19.591309 24.46811,19.591309 C24.908493,19.591309 25.26564,19.23462 25.26564,18.793701 C25.26564,18.35376 24.908493,17.996338 24.46811,17.996338 ZM18.88533,34.744385 C10.075928,34.744385 2.934723,27.603271 2.934723,18.793701 C2.934723,9.984375 10.075928,2.8430176 18.88533,2.8430176 C27.694824,2.8430176 34.835938,9.984375 34.835938,18.793701 C34.835938,27.603271 27.694824,34.744385 18.88533,34.744385 ZM18.88533,1.248291 C9.195038,1.248291 1.3397369,9.104248 1.3397369,18.793701 C1.3397369,28.483887 9.195038,36.339355 18.88533,36.339355 C28.575623,36.339355 36.431015,28.483887 36.431015,18.793701 C36.431015,9.104248 28.575623,1.248291 18.88533,1.248291 ZM18.88533,31.554443 C11.838028,31.554443 6.124878,25.841553 6.124878,18.793701 C6.124878,11.746826 11.838028,6.0334473 18.88533,6.0334473 C25.932632,6.0334473 31.645859,11.746826 31.645859,18.793701 C31.645859,25.841553 25.932632,31.554443 18.88533,31.554443 ZM18.88533,4.4384766 C10.957153,4.4384766 4.5298004,10.865234 4.5298004,18.793701 C4.5298004,26.722412 10.957153,33.149414 18.88533,33.149414 C26.813934,33.149414 33.24086,26.722412 33.24086,18.793701 C33.24086,10.865234 26.813934,4.4384766 18.88533,4.4384766 Z"/>
</svg>