<svg xmlns="http://www.w3.org/2000/svg"
 xmlns:xlink="http://www.w3.org/1999/xlink"
 width="62px" height="63px"  viewBox="0 0 62 63">
<path fill-rule="evenodd"  fill="#0b80e0"
 d="M58.166748,55.786377 C58.166748,57.281006 56.9552,58.492554 55.460693,58.492554 C55.460693,58.492554 50.048218,58.492554 50.048218,58.492554 C48.553833,58.492554 47.34204,57.281006 47.34204,55.786377 C47.34204,55.786377 47.34204,50.37378 47.34204,50.37378 C47.34204,48.87964 48.553833,47.667847 50.048218,47.667847 C50.048218,47.667847 55.460693,47.667847 55.460693,47.667847 C56.9552,47.667847 58.166748,48.87964 58.166748,50.37378 C58.166748,50.37378 58.166748,55.786377 58.166748,55.786377 ZM55.460693,44.961548 C55.460693,44.961548 50.048218,44.961548 50.048218,44.961548 C47.059204,44.961548 44.635864,47.38513 44.635864,50.37378 C44.635864,50.37378 44.635864,55.786377 44.635864,55.786377 C44.635864,58.775513 47.059204,61.19861 50.048218,61.19861 C50.048218,61.19861 55.460693,61.19861 55.460693,61.19861 C58.449585,61.19861 60.873047,58.775513 60.873047,55.786377 C60.873047,55.786377 60.873047,50.37378 60.873047,50.37378 C60.873047,47.38513 58.449585,44.961548 55.460693,44.961548 ZM36.517334,55.786377 C36.517334,57.281006 35.305542,58.492554 33.811035,58.492554 C33.811035,58.492554 28.398804,58.492554 28.398804,58.492554 C26.904297,58.492554 25.692627,57.281006 25.692627,55.786377 C25.692627,55.786377 25.692627,50.37378 25.692627,50.37378 C25.692627,48.87964 26.904297,47.667847 28.398804,47.667847 C28.398804,47.667847 33.811035,47.667847 33.811035,47.667847 C35.305542,47.667847 36.517334,48.87964 36.517334,50.37378 C36.517334,50.37378 36.517334,55.786377 36.517334,55.786377 ZM33.811035,44.961548 C33.811035,44.961548 28.398804,44.961548 28.398804,44.961548 C25.40979,44.961548 22.986328,47.38513 22.986328,50.37378 C22.986328,50.37378 22.986328,55.786377 22.986328,55.786377 C22.986328,58.775513 25.40979,61.19861 28.398804,61.19861 C28.398804,61.19861 33.811035,61.19861 33.811035,61.19861 C36.80017,61.19861 39.22351,58.775513 39.22351,55.786377 C39.22351,55.786377 39.22351,50.37378 39.22351,50.37378 C39.22351,47.38513 36.80017,44.961548 33.811035,44.961548 ZM14.86792,55.786377 C14.86792,57.281006 13.656128,58.492554 12.161621,58.492554 C12.161621,58.492554 6.7492676,58.492554 6.7492676,58.492554 C5.2547607,58.492554 4.0429688,57.281006 4.0429688,55.786377 C4.0429688,55.786377 4.0429688,50.37378 4.0429688,50.37378 C4.0429688,48.87964 5.2547607,47.667847 6.7492676,47.667847 C6.7492676,47.667847 12.161621,47.667847 12.161621,47.667847 C13.656128,47.667847 14.86792,48.87964 14.86792,50.37378 C14.86792,50.37378 14.86792,55.786377 14.86792,55.786377 ZM12.161621,44.961548 C12.161621,44.961548 6.7492676,44.961548 6.7492676,44.961548 C3.760254,44.961548 1.3369141,47.38513 1.3369141,50.37378 C1.3369141,50.37378 1.3369141,55.786377 1.3369141,55.786377 C1.3369141,58.775513 3.760254,61.19861 6.7492676,61.19861 C6.7492676,61.19861 12.161621,61.19861 12.161621,61.19861 C15.150513,61.19861 17.573975,58.775513 17.573975,55.786377 C17.573975,55.786377 17.573975,50.37378 17.573975,50.37378 C17.573975,47.38513 15.150513,44.961548 12.161621,44.961548 ZM9.455444,42.255615 C10.203369,42.255615 10.808594,41.649048 10.808594,40.902466 C10.808594,40.902466 10.808594,31.430786 10.808594,31.430786 C10.808594,31.430786 29.751831,31.430786 29.751831,31.430786 C29.751831,31.430786 29.751831,40.902466 29.751831,40.902466 C29.751831,41.649048 30.357056,42.255615 31.10498,42.255615 C31.852905,42.255615 32.458008,41.649048 32.458008,40.902466 C32.458008,40.902466 32.458008,31.430786 32.458008,31.430786 C32.458008,31.430786 51.401367,31.430786 51.401367,31.430786 C51.401367,31.430786 51.401367,40.902466 51.401367,40.902466 C51.401367,41.649048 52.007812,42.255615 52.754395,42.255615 C53.50232,42.255615 54.107544,41.649048 54.107544,40.902466 C54.107544,40.902466 54.107544,30.077637 54.107544,30.077637 C54.107544,29.329834 53.50232,28.724243 52.754395,28.724243 C52.754395,28.724243 32.458008,28.724243 32.458008,28.724243 C32.458008,28.724243 32.458008,21.958862 32.458008,21.958862 C32.458008,21.212646 31.852905,20.60608 31.10498,20.60608 C30.357056,20.60608 29.751831,21.212646 29.751831,21.958862 C29.751831,21.958862 29.751831,28.724243 29.751831,28.724243 C29.751831,28.724243 9.455444,28.724243 9.455444,28.724243 C8.707642,28.724243 8.102417,29.329834 8.102417,30.077637 C8.102417,30.077637 8.102417,40.902466 8.102417,40.902466 C8.102417,41.649048 8.707642,42.255615 9.455444,42.255615 ZM25.692627,7.0753174 C25.692627,5.5805664 26.904297,4.3687744 28.398804,4.3687744 C28.398804,4.3687744 33.811035,4.3687744 33.811035,4.3687744 C35.305542,4.3687744 36.517334,5.5805664 36.517334,7.0753174 C36.517334,7.0753174 36.517334,12.487549 36.517334,12.487549 C36.517334,13.982056 35.305542,15.1936035 33.811035,15.1936035 C33.811035,15.1936035 28.398804,15.1936035 28.398804,15.1936035 C26.904297,15.1936035 25.692627,13.982056 25.692627,12.487549 C25.692627,12.487549 25.692627,7.0753174 25.692627,7.0753174 ZM28.398804,17.899536 C28.398804,17.899536 33.811035,17.899536 33.811035,17.899536 C36.80017,17.899536 39.22351,15.476196 39.22351,12.487549 C39.22351,12.487549 39.22351,7.0753174 39.22351,7.0753174 C39.22351,4.0861816 36.80017,1.6628418 33.811035,1.6628418 C33.811035,1.6628418 28.398804,1.6628418 28.398804,1.6628418 C25.40979,1.6628418 22.986328,4.0861816 22.986328,7.0753174 C22.986328,7.0753174 22.986328,12.487549 22.986328,12.487549 C22.986328,15.476196 25.40979,17.899536 28.398804,17.899536 Z"/>
</svg>